<?xml version="1.0" standalone="no"?>
<!DOCTYPE svg PUBLIC "-//W3C//DTD SVG 20010904//EN"
 "http://www.w3.org/TR/2001/REC-SVG-20010904/DTD/svg10.dtd">
<svg version="1.0" xmlns="http://www.w3.org/2000/svg"
 width="383.000000pt" height="383.000000pt" viewBox="0 0 383.000000 383.000000"
 preserveAspectRatio="xMidYMid meet">
<metadata>
Created by potrace 1.14, written by Peter Selinger 2001-2017
</metadata>
<g transform="translate(0.000000,383.000000) scale(0.100000,-0.100000)"
fill="#000000" stroke="none">
<path d="M2047 3675 c-32 -6 -72 -11 -88 -11 -16 1 -29 -2 -29 -5 0 -4 -15 -4
-32 0 -46 11 -119 5 -158 -13 -8 -3 -47 -8 -85 -10 -115 -5 -249 -49 -315
-102 -27 -22 -161 -154 -156 -154 1 0 -15 -19 -36 -42 -43 -47 -128 -171 -128
-188 0 -5 -4 -10 -10 -10 -5 0 -10 -6 -10 -14 0 -7 -7 -19 -15 -26 -9 -7 -13
-15 -10 -18 3 -3 -1 -15 -8 -26 -29 -45 -87 -223 -103 -312 -2 -13 -6 -35 -8
-49 -3 -13 -7 -29 -11 -35 -3 -5 0 -10 7 -10 8 0 9 -3 3 -8 -5 -4 -11 -16 -12
-27 0 -11 -4 -39 -7 -63 -11 -77 -18 -185 -21 -302 -2 -63 -6 -126 -9 -140
-10 -35 -15 -153 -8 -165 4 -5 8 -21 10 -34 2 -13 10 -37 18 -52 8 -16 15 -32
15 -36 1 -8 15 -47 26 -73 3 -8 5 -18 5 -22 -1 -5 2 -8 8 -8 5 0 10 -6 10 -14
0 -8 4 -16 9 -18 5 -1 11 -9 13 -16 4 -18 129 -142 143 -142 30 0 54 -100 60
-248 1 -40 5 -76 8 -79 4 -3 2 -14 -4 -24 -5 -11 -6 -19 -2 -19 16 0 2 -118
-22 -195 -16 -49 -21 -56 -39 -50 -48 14 -63 17 -96 20 -39 3 -77 -13 -113
-49 -33 -33 -78 -61 -102 -62 -40 -3 -100 -16 -120 -27 -11 -6 -24 -12 -30
-12 -5 -1 -23 -7 -40 -14 -16 -8 -39 -14 -50 -16 -11 -1 -40 -8 -65 -15 -25
-7 -49 -14 -55 -16 -5 -1 -29 -7 -53 -13 -24 -7 -67 -14 -95 -17 -32 -3 -79
-20 -126 -44 -42 -22 -84 -42 -93 -44 -17 -5 -18 -28 -18 -306 l0 -300 1838 0
1837 0 -33 20 c-18 11 -36 20 -41 20 -5 0 -11 3 -13 8 -1 4 -23 18 -48 31 -25
14 -47 27 -50 31 -3 4 -39 24 -80 44 -41 21 -77 41 -80 45 -6 7 -46 29 -157
86 -45 23 -79 46 -75 50 4 5 -1 5 -10 2 -10 -4 -18 -2 -18 4 0 5 -12 14 -27
20 -15 6 -41 16 -58 24 -34 15 -63 24 -101 31 -14 3 -32 10 -41 17 -31 25 -59
53 -78 80 -11 16 -33 35 -50 44 -16 8 -44 31 -61 51 -26 29 -30 39 -21 53 6
10 15 15 19 13 4 -3 8 1 8 9 0 8 9 22 20 32 11 10 17 21 15 26 -3 4 0 13 7 21
7 7 13 22 12 33 0 11 4 26 9 33 5 6 7 12 4 12 -10 0 15 64 38 95 11 17 28 44
35 60 8 17 17 32 20 35 18 17 79 174 85 220 4 35 28 124 35 130 3 3 5 12 5 20
0 8 8 34 18 58 20 47 25 66 33 127 7 47 7 185 0 235 -20 153 -23 223 -12 293
4 26 11 47 16 47 4 0 7 11 5 25 -1 14 1 28 5 30 9 6 8 25 -3 43 -5 6 -6 12 -2
12 3 0 1 10 -6 21 -14 28 -14 86 1 104 6 8 9 18 6 24 -3 5 1 12 10 15 24 9 46
7 39 -3 -3 -5 3 -12 14 -16 10 -3 29 -14 41 -25 12 -11 27 -17 31 -14 5 3 9 1
9 -4 0 -9 23 -17 75 -28 24 -5 84 14 102 32 29 28 47 103 28 116 -7 5 -6 8 1
8 8 0 5 19 -9 55 -11 30 -24 55 -28 55 -5 0 -9 6 -9 13 0 28 -168 177 -200
177 -11 0 -52 21 -60 31 -3 3 -18 10 -35 16 -19 6 -36 22 -47 44 -39 79 -58
124 -58 139 0 9 -3 20 -7 24 -7 7 -11 24 -15 64 -1 12 -6 22 -10 22 -4 0 -8 7
-8 17 0 21 -57 141 -76 160 -8 8 -14 17 -14 21 0 14 -97 108 -108 104 -7 -2
-12 1 -12 8 0 11 -149 85 -185 92 -11 1 -30 12 -42 23 -40 36 -52 45 -78 57
-14 6 -25 16 -25 21 0 6 -3 7 -7 4 -3 -4 -11 -3 -17 2 -11 10 -42 18 -101 26
-73 11 -104 11 -158 0z"/>
</g>
</svg>
